<svg width="9" height="16" viewBox="0 0 9 16" fill="none" xmlns="http://www.w3.org/2000/svg">
<path id="Vector" d="M0.399703 0.420946C0.272999 0.553514 0.172476 0.710979 0.10389 0.884327C0.0353038 1.05768 0 1.2435 0 1.43118C0 1.61885 0.0353038 1.80468 0.10389 1.97802C0.172476 2.15137 0.272999 2.30884 0.399703 2.4414L5.70275 8.00125L0.399703 13.5611C0.144148 13.829 0.000578732 14.1924 0.000578732 14.5713C0.000578732 14.9502 0.144148 15.3136 0.399703 15.5816C0.655257 15.8495 1.00186 16 1.36327 16C1.72468 16 2.07129 15.8495 2.32684 15.5816L8.6003 9.00431C8.727 8.87175 8.82753 8.71428 8.89611 8.54093C8.9647 8.36758 9 8.18175 9 7.99408C9 7.80641 8.9647 7.62058 8.89611 7.44724C8.82753 7.27389 8.727 7.11642 8.6003 6.98385L2.32684 0.406617C1.80747 -0.137904 0.932742 -0.137904 0.399703 0.420946Z" fill="#0FC3C1"/>
</svg>
