<svg width="22" height="31" viewBox="0 0 22 31" fill="none" xmlns="http://www.w3.org/2000/svg">
<g id="Layer_1" clip-path="url(#clip0_242_400)">
<path id="Vector" d="M13.6866 4.45943C14.2257 5.43002 14.7973 6.34814 15.2585 7.31217C15.777 8.40247 16.0415 9.59823 16.0315 10.8077C16.0315 11.8176 16.0315 12.821 16.0315 13.8244C16.0307 13.9771 15.97 14.1233 15.8626 14.231C15.2507 14.6907 14.7156 15.2465 14.2777 15.8771C12.9396 17.6412 11.5886 19.3987 10.257 21.1694C10.192 21.2705 10.1006 21.3516 9.99285 21.4036C9.88513 21.4557 9.76524 21.4768 9.64643 21.4645H1.11794C1.11794 22.6188 1.11794 23.7336 1.11794 24.8484C1.11724 24.9846 1.14492 25.1194 1.19921 25.2441C1.25349 25.3687 1.33318 25.4805 1.43303 25.5721C1.53289 25.6636 1.65069 25.7329 1.77882 25.7755C1.90694 25.818 2.04251 25.8328 2.17669 25.819C3.59919 25.819 5.02816 25.819 6.45716 25.819H6.93139L6.67806 26.8684C6.60457 26.8744 6.53065 26.8744 6.45716 26.8684C4.91125 26.8684 3.3589 26.8684 1.80649 26.8684C1.57777 26.8835 1.34836 26.8515 1.13229 26.7742C0.91622 26.697 0.717997 26.5762 0.549667 26.4191C0.381336 26.262 0.246472 26.0721 0.153217 25.8607C0.0599625 25.6493 0.0102792 25.4209 0.00724469 25.1895C-0.0024149 25.0169 -0.0024149 24.8439 0.00724469 24.6714C0.00724469 20.0807 0.00724469 15.5557 0.00724469 10.9978C0.00660843 9.02247 0.602542 7.09395 1.71554 5.4694L2.36509 4.52499C2.01934 4.45412 1.68028 4.35321 1.35176 4.22335C1.16263 4.12866 1.00517 3.97997 0.898938 3.79578C0.79271 3.61158 0.742436 3.40001 0.754234 3.1872C0.754234 2.53139 0.754234 1.87559 0.754234 1.21978C0.752456 1.05454 0.783606 0.89062 0.845814 0.737771C0.908023 0.584922 1.00001 0.446209 1.11635 0.329973C1.23269 0.213737 1.371 0.122354 1.52303 0.0611498C1.67506 -5.48027e-05 1.83767 -0.0297955 2.00131 -0.0262698H14.2062C14.5256 -0.0315443 14.8339 0.0910168 15.064 0.314683C15.294 0.538348 15.4271 0.844886 15.4339 1.16726C15.4685 1.8493 15.4685 2.53134 15.4339 3.21338C15.4254 3.54156 15.2889 3.85311 15.0542 4.08029C14.8194 4.30747 14.5053 4.4319 14.1802 4.42661C13.9789 4.47251 13.81 4.45943 13.6866 4.45943ZM14.8623 10.5781C14.8623 10.3617 14.8623 10.165 14.8103 9.96822C14.4652 8.03994 13.6354 6.23344 12.4005 4.72177C12.3451 4.66345 12.2785 4.61708 12.2048 4.58551C12.1311 4.55395 12.0519 4.53783 11.9718 4.53812C9.32604 4.53812 6.68235 4.53812 4.04088 4.53812C3.95418 4.54272 3.86929 4.56483 3.79119 4.60313C3.7131 4.64142 3.64341 4.69511 3.58623 4.76107C2.59189 6.01503 1.86238 7.46134 1.44271 9.01077C1.3128 9.52886 1.23487 10.06 1.13094 10.6109L14.8623 10.5781ZM6.82094 17.2608V18.7035C6.82094 19.2216 6.98332 19.3593 7.47048 19.3593C7.81474 19.3593 8.15897 19.3593 8.50323 19.3593C9.04235 19.3593 9.20479 19.1954 9.21129 18.6511V17.2411C9.74391 17.2411 10.2375 17.2411 10.7247 17.2411C11.2119 17.2411 11.3093 17.064 11.3223 16.6509C11.3353 16.2377 11.3223 15.8574 11.3223 15.4573C11.3223 15.0573 11.1469 14.8015 10.6728 14.8015H9.21129V13.4243C9.21129 12.8013 9.06187 12.6505 8.4578 12.6505H7.60686C6.95732 12.6505 6.81443 12.775 6.80793 13.4571V14.7687H5.27502C4.8788 14.7687 4.70991 14.9458 4.69692 15.3327C4.68393 15.7196 4.69692 16.1328 4.69692 16.5263C4.69692 17.0313 4.85931 17.1821 5.34646 17.1821L6.82094 17.2608Z" fill="#79AA4F"/>
<path id="Vector_2" d="M21.9996 18.0282C22.07 18.9465 21.799 19.8582 21.2396 20.5858C18.9403 23.5894 16.6387 26.5952 14.335 29.6031C13.8424 30.3227 13.092 30.8207 12.2424 30.992C11.3928 31.1633 10.5105 30.9944 9.78194 30.521C9.05338 30.0477 8.5356 29.3069 8.338 28.4552C8.14039 27.6035 8.2785 26.7077 8.72303 25.9569C9.59341 24.6453 10.5742 23.4189 11.5225 22.1663C12.945 20.2776 14.374 18.402 15.8095 16.5198C16.1077 16.0836 16.4999 15.7213 16.9566 15.46C17.4134 15.1988 17.9228 15.0454 18.4467 15.0114C19.3127 14.9421 20.1709 15.2197 20.8357 15.7843C21.5006 16.3488 21.9187 17.1549 21.9996 18.0282ZM12.6267 22.127L12.1201 22.7828C11.2562 23.9305 10.3469 25.0453 9.52195 26.2323C9.17861 26.7724 9.05067 27.4239 9.16396 28.0554C9.27725 28.687 9.62332 29.2517 10.1325 29.6359C10.6341 30.0177 11.2579 30.1988 11.8838 30.1443C12.5097 30.0898 13.0935 29.8037 13.5231 29.3409C13.9648 28.8621 14.348 28.3243 14.7507 27.8062C15.4003 26.9799 16.0498 26.1405 16.6993 25.2879L12.6267 22.127Z" fill="#79AA4F"/>
</g>
<defs>
<clipPath id="clip0_242_400">
<rect width="22" height="31" fill="white"/>
</clipPath>
</defs>
</svg>
