<svg width="31" height="36" viewBox="0 0 31 36" fill="none" xmlns="http://www.w3.org/2000/svg">
<g id="Group 6356336">
<path id="Vector" d="M12.7382 28.8134C12.7253 28.875 12.7249 28.9385 12.7368 29.0003C12.7487 29.0621 12.7728 29.1209 12.8077 29.1734C12.8425 29.2258 12.8875 29.2709 12.9399 29.306C12.9923 29.341 13.0511 29.3654 13.113 29.3777C13.3256 29.4282 13.5434 29.4542 13.762 29.455C13.9578 29.455 14.153 29.4325 14.3437 29.388C14.4411 29.3611 14.5288 29.307 14.5966 29.2322C14.6644 29.1573 14.7093 29.0648 14.7263 28.9654C14.7444 28.8185 14.7599 28.6717 14.7728 28.5222L14.8762 27.4554C15.0081 27.4374 15.1348 27.4194 15.2589 27.3962C15.4887 27.3533 15.7158 27.2965 15.9388 27.2261C17.3918 26.7546 18.2656 25.68 18.3199 24.2577C18.3578 23.8306 18.2989 23.4004 18.1477 22.999C17.9964 22.5976 17.7567 22.2352 17.4461 21.9386C17.0715 21.6037 16.6375 21.3416 16.1663 21.1656C15.8948 21.0548 15.6234 20.9517 15.3519 20.8486C15.0805 20.7455 14.8504 20.6553 14.6022 20.5549C14.3103 20.4463 14.0456 20.2757 13.8266 20.055C13.7475 19.9563 13.6919 19.841 13.6642 19.7178C13.6364 19.5946 13.6371 19.4667 13.6663 19.3438C13.6886 19.2266 13.7414 19.1172 13.8194 19.0268C13.8975 18.9363 13.998 18.8679 14.111 18.8284C14.4657 18.7042 14.8444 18.6637 15.2175 18.7099C15.7594 18.7781 16.2847 18.9421 16.7687 19.1943C16.854 19.2356 16.9445 19.2691 17.0272 19.3051L17.3814 19.4211L17.6865 19.1093V18.6455C17.6865 18.3517 17.6865 18.058 17.6865 17.7668C17.6844 17.623 17.6395 17.4831 17.5576 17.3648C17.4757 17.2465 17.3604 17.155 17.2263 17.102L17.1255 17.0582C16.8958 16.96 16.6611 16.8739 16.4223 16.8005C16.2735 16.7562 16.1225 16.7201 15.9698 16.6923L16.0991 15.3833C16.1107 15.3242 16.1105 15.2634 16.0984 15.2045C16.0863 15.1455 16.0627 15.0895 16.0288 15.0396C15.9949 14.9898 15.9515 14.9472 15.901 14.9142C15.8505 14.8812 15.7939 14.8584 15.7346 14.8473C15.3373 14.7569 14.9257 14.7473 14.5246 14.819C14.4127 14.8356 14.31 14.8904 14.2341 14.974C14.1582 15.0577 14.1137 15.165 14.1084 15.2776C14.0929 15.4812 14.0696 15.6822 14.0489 15.8858L13.9688 16.6588L13.9119 16.6717C13.6534 16.7232 13.4155 16.7773 13.1673 16.8546C12.4471 17.0515 11.8278 17.5115 11.4326 18.143C11.2135 18.5087 11.0708 18.9147 11.013 19.3366C10.9553 19.7586 10.9837 20.1879 11.0965 20.5987C11.1866 20.9761 11.3558 21.3302 11.5928 21.6379C11.8298 21.9457 12.1294 22.2 12.4719 22.3844C12.997 22.6748 13.5484 22.9155 14.1187 23.1033L14.2195 23.1394C14.5943 23.2614 14.9502 23.4349 15.277 23.6547C15.388 23.7343 15.4772 23.8405 15.5363 23.9634C15.5955 24.0863 15.6228 24.222 15.6156 24.3582C15.6132 24.5019 15.5753 24.6429 15.5055 24.7687C15.4356 24.8945 15.3358 25.0013 15.2149 25.0797C14.9377 25.2439 14.6221 25.3327 14.2997 25.3373C13.4452 25.399 12.5927 25.1927 11.8617 24.7473C11.7764 24.6983 11.6885 24.6545 11.6032 24.6107L11.0603 24.335L10.9413 24.8014C10.8427 25.2233 10.813 25.6584 10.8534 26.0898C10.8576 26.2663 10.9114 26.4382 11.0087 26.5858C11.1061 26.7334 11.2431 26.8508 11.4041 26.9246C11.7944 27.1204 12.2091 27.2634 12.6373 27.3498L12.8959 27.3988L12.8778 27.5662C12.8286 28.0069 12.7847 28.4037 12.7382 28.8134Z" fill="#FF0000"/>
<path id="Vector_2" d="M26.8121 24.1572L22.3937 28.28L25.3979 28.4578C24.5184 30.3171 23.0702 31.8507 21.2614 32.8383C19.8607 33.6298 18.2823 34.0561 16.6724 34.0777C15.8968 34.0777 15.1418 34.0777 14.2396 34.0777H14.0689C13.1667 34.0777 12.4066 34.0777 11.6387 34.0777C10.028 34.0555 8.44893 33.6293 7.04716 32.8383C5.87562 32.1932 4.84722 31.3185 4.0239 30.2667C3.20058 29.215 2.5994 28.008 2.25653 26.7185C1.7728 25.0186 1.78624 23.2163 2.2953 21.5237C2.72746 20.1041 3.35384 18.7506 4.15675 17.5014C5.3637 15.6038 6.77127 13.8407 8.35534 12.2422C9.4541 11.1007 10.6615 9.96951 11.9412 8.89242H16.3673C17.619 9.94837 18.8167 11.0664 19.9557 12.2422C21.5392 13.8412 22.9467 15.6043 24.1543 17.5014C24.8189 18.5477 25.3668 19.6632 25.7883 20.828L25.8788 21.0857H27.9108L27.7454 20.5703C27.6911 20.4003 27.6342 20.2328 27.5722 20.055C27.0339 18.6221 26.3331 17.2552 25.4832 15.9811C24.2852 14.1838 22.923 12.5009 21.4139 10.9538C20.5219 10.021 19.5524 9.09083 18.5286 8.17865C18.6962 7.96443 18.7952 7.70499 18.813 7.43397C18.8512 7.0127 18.8442 6.58859 18.7923 6.16878C18.7544 5.91385 18.6509 5.67304 18.4919 5.46983C18.3329 5.26662 18.1237 5.10794 17.8849 5.00923C17.8849 4.95512 17.9082 4.90101 17.9211 4.8469C18.1726 3.88474 18.6314 2.98874 19.2655 2.22117C19.374 2.0846 19.4878 1.96349 19.6016 1.81662C19.7447 1.66021 19.8324 1.46128 19.851 1.25039C19.8697 1.03951 19.8184 0.828331 19.705 0.649342C19.5911 0.471385 19.4211 0.336133 19.2218 0.264785C19.0225 0.193437 18.8051 0.190028 18.6036 0.255097L18.2468 0.353016C17.5462 0.54112 16.8456 0.731806 16.145 0.930217C16.1078 0.947601 16.0662 0.952968 16.0259 0.945574C15.9855 0.938181 15.9485 0.918396 15.92 0.888988C15.783 0.773033 15.6382 0.664804 15.496 0.554003L15.3202 0.417435C15.1094 0.255733 14.8674 0.139074 14.6093 0.0747284V0H14.0922H13.7018V0.0644192C13.4447 0.129302 13.2036 0.245934 12.9934 0.407133L12.8125 0.546273C12.6711 0.654497 12.5315 0.765301 12.3936 0.878678C12.3645 0.907977 12.3271 0.927646 12.2864 0.935021C12.2457 0.942396 12.2037 0.937122 12.1661 0.919907C11.4733 0.721496 10.7778 0.535969 10.0979 0.347865L9.72299 0.244796C9.52136 0.182171 9.30462 0.187621 9.10642 0.260303C8.90821 0.332985 8.73962 0.468834 8.62679 0.646771C8.51369 0.826032 8.46282 1.03736 8.48197 1.24825C8.50112 1.45915 8.58925 1.65794 8.7328 1.81405C8.84656 1.94804 8.95772 2.07172 9.0663 2.2186C9.7021 2.98542 10.1618 3.88162 10.4133 4.84432C10.4262 4.89843 10.4391 4.95254 10.4495 5.00666C10.2105 5.10514 10.0012 5.26377 9.84214 5.46702C9.68308 5.67027 9.57966 5.91118 9.54201 6.1662C9.49056 6.58601 9.48276 7.00999 9.51874 7.43139C9.53616 7.70294 9.63627 7.96273 9.80571 8.17608C8.77157 9.08826 7.81242 10.021 6.92048 10.9513C5.41183 12.4987 4.04962 14.1816 2.85116 15.9785C2.00049 17.2555 1.30041 18.6259 0.764789 20.0627C0.00339373 22.037 -0.194378 24.1829 0.193424 26.2624C0.669227 28.8604 2.00341 31.2251 3.98354 32.98C6.07702 34.876 8.79475 35.9421 11.6232 35.9768C12.3626 35.9974 13.1046 36 13.7225 36H14.2603C14.9402 36 15.8321 36 16.7292 35.9768C19.555 35.9402 22.2697 34.8743 24.3612 32.98C25.7255 31.767 26.7877 30.254 27.4636 28.5609L30.7392 28.7361L26.8121 24.1572ZM11.7292 2.79064C12.0371 2.88306 12.363 2.89897 12.6784 2.83699C12.9939 2.77501 13.2893 2.63701 13.5389 2.43505C13.7432 2.27271 13.9526 2.11295 14.1594 1.95319L14.7825 2.43505C15.0317 2.63781 15.3271 2.77631 15.6428 2.83833C15.9584 2.90034 16.2845 2.88397 16.5922 2.79064H16.6284C16.3032 3.44941 16.0717 4.15016 15.9407 4.87267H12.3807C12.248 4.15026 12.0157 3.44961 11.6904 2.79064H11.7292Z" fill="#FF0000"/>
</g>
</svg>
