<svg width="27" height="36" viewBox="0 0 27 36" fill="none" xmlns="http://www.w3.org/2000/svg">
<g id="Group 6356335">
<path id="Vector" d="M26.2672 19.1473C25.7546 17.7798 25.0871 16.4753 24.2777 15.2593C23.1367 13.5441 21.8393 11.9379 20.4021 10.4614C19.5526 9.57121 18.6292 8.68097 17.6542 7.81288C17.8137 7.60843 17.9081 7.36083 17.925 7.10217C17.9601 6.70008 17.9535 6.29544 17.9053 5.8947C17.8694 5.65132 17.771 5.4214 17.6195 5.22742C17.468 5.03345 17.2687 4.88206 17.0411 4.78806C17.0411 4.73642 17.0632 4.68478 17.0755 4.63313C17.314 3.71448 17.751 2.85914 18.3559 2.12721C18.4593 1.99687 18.5677 1.88128 18.6735 1.74111C18.8106 1.59233 18.8948 1.40257 18.9131 1.20119C18.9313 0.999817 18.8826 0.798043 18.7745 0.627093C18.6681 0.456848 18.508 0.326775 18.3194 0.257327C18.1309 0.18788 17.9246 0.182999 17.733 0.243458L17.3932 0.334448C16.7259 0.516428 16.0586 0.698414 15.3913 0.885314C15.3558 0.902049 15.3159 0.907483 15.2772 0.900886C15.2384 0.89429 15.2026 0.875982 15.1746 0.848427C15.0466 0.737763 14.9112 0.634475 14.7757 0.531188L14.6034 0.398389C14.4039 0.242823 14.1741 0.130582 13.9287 0.0688573V0H13.4363H13.0645V0.0590184C12.8194 0.121812 12.5899 0.233949 12.3898 0.38855L12.2174 0.521349C12.082 0.624636 11.949 0.727924 11.8185 0.838588C11.7905 0.866143 11.7548 0.884458 11.716 0.891055C11.6773 0.897651 11.6374 0.89221 11.6019 0.875475C10.937 0.688575 10.2706 0.505772 9.60249 0.32707L9.26269 0.233627C9.07071 0.172996 8.864 0.177772 8.67503 0.247211C8.48606 0.31665 8.32554 0.446818 8.21869 0.617262C8.11097 0.788344 8.0625 0.990029 8.08074 1.1913C8.09898 1.39258 8.18291 1.58229 8.31963 1.73128C8.42797 1.85916 8.53386 1.97719 8.63728 2.11737C9.24328 2.8489 9.68119 3.70432 9.92012 4.62329C9.92012 4.67494 9.94228 4.72658 9.95459 4.77822C9.72691 4.87249 9.52748 5.0239 9.37563 5.21779C9.22378 5.41168 9.12465 5.64146 9.08786 5.88486C9.04089 6.28568 9.0343 6.6902 9.06818 7.09233C9.08477 7.35149 9.18011 7.59943 9.34149 7.80304C8.35657 8.67114 7.44307 9.56137 6.59112 10.4516C5.15459 11.9281 3.85799 13.5343 2.71794 15.2495C1.90779 16.4655 1.23946 17.7699 0.725957 19.1375C0.00276268 21.0222 -0.184712 23.0699 0.184251 25.0543C0.636323 27.5342 1.90717 29.7914 3.79395 31.4655C5.7865 33.2723 8.37157 34.2894 11.0626 34.3255C11.9811 34.3501 12.8896 34.3501 13.5766 34.3476H13.9558V32.5082H13.5865C12.7911 32.5082 11.9417 32.5082 11.1094 32.4959C9.57559 32.4755 8.07163 32.0696 6.73639 31.3155C5.62036 30.6995 4.64075 29.8643 3.85661 28.8601C3.07246 27.8559 2.50003 26.7035 2.17378 25.4724C1.7108 23.8512 1.72361 22.1313 2.21071 20.5171C2.62196 19.1625 3.21766 17.8709 3.98109 16.6783C5.1323 14.8679 6.47363 13.1853 7.9823 11.6591C9.06626 10.5368 10.2061 9.46984 11.3975 8.46211C11.8555 8.46211 12.311 8.46211 12.7665 8.46211H14.2439C14.6994 8.46211 15.1549 8.46211 15.6105 8.46211C16.8293 9.49989 17.9792 10.577 19.0281 11.6591C20.5354 13.1859 21.8758 14.8684 23.0269 16.6783C23.7885 17.8743 24.3818 19.1694 24.7899 20.5269C25.277 22.1411 25.2898 23.861 24.8268 25.4822C24.2048 27.8209 22.706 29.8311 20.6409 31.0966L20.604 30.9244L19.8259 28.3865L17.0115 33.4082L22.1527 35.9904L21.3427 33.3836L21.1998 32.9139C21.9134 32.5097 22.5812 32.0298 23.1918 31.4827C25.0777 29.8078 26.3484 27.551 26.8015 25.0715C27.173 23.0853 26.9881 21.0353 26.2672 19.1473ZM15.1869 4.63805H11.8013C11.6761 3.94831 11.4548 3.27949 11.1439 2.65102H11.1783C11.4715 2.73965 11.782 2.75506 12.0825 2.69589C12.383 2.63672 12.6644 2.50478 12.9019 2.31165C13.0989 2.15672 13.2984 2.00179 13.4954 1.85178C13.6948 2.00179 13.8918 2.15672 14.0888 2.31165C14.3264 2.50459 14.6078 2.63641 14.9083 2.69557C15.2088 2.75474 15.5192 2.73944 15.8124 2.65102H15.8468C15.5341 3.27979 15.3119 3.94959 15.1869 4.64051V4.63805Z" fill="#0FC3C1"/>
<path id="Vector_2" d="M16.6242 20.945C16.2638 20.6242 15.8461 20.3739 15.393 20.2073C15.1468 20.1015 14.8784 20.0031 14.6199 19.9048C14.3613 19.8064 14.1274 19.7203 13.9033 19.6244C13.6254 19.5208 13.3733 19.358 13.1647 19.1473C13.0893 19.0527 13.0364 18.9423 13.0099 18.8243C12.9835 18.7063 12.9842 18.5838 13.012 18.4661C13.0354 18.3566 13.0866 18.2549 13.1608 18.1709C13.235 18.0869 13.3296 18.0235 13.4355 17.9866C13.7733 17.8679 14.134 17.8292 14.4894 17.8735C15.0059 17.9365 15.5066 18.0932 15.9667 18.3358C16.048 18.3752 16.1342 18.4071 16.213 18.4391L16.5503 18.5793L16.7251 18.3752L16.8408 18.2547V17.812C16.8408 17.5316 16.8408 17.2513 16.8408 16.971C16.8376 16.8341 16.7943 16.7011 16.7165 16.5884C16.6386 16.4757 16.5295 16.3881 16.4026 16.3365L16.3065 16.2971C16.0923 16.2086 15.8707 16.1151 15.6368 16.0512C15.4915 16.0094 15.3463 15.9774 15.2059 15.9504L15.329 14.6986C15.3397 14.6425 15.3392 14.5847 15.3276 14.5287C15.3159 14.4727 15.2933 14.4195 15.2611 14.3723C15.2288 14.325 15.1876 14.2845 15.1397 14.2532C15.0917 14.2218 15.0381 14.2002 14.9818 14.1896C14.6034 14.1033 14.2115 14.0941 13.8295 14.1625C13.7229 14.1784 13.6251 14.2307 13.5528 14.3105C13.4805 14.3903 13.4382 14.4928 13.4331 14.6003C13.4183 14.7847 13.3986 14.9692 13.3789 15.1561L13.3001 15.9184L13.2459 15.9307C12.9997 15.9799 12.7732 16.0315 12.5368 16.1029C11.8517 16.2925 11.2624 16.7311 10.8846 17.3325C10.676 17.6819 10.5399 18.0697 10.4845 18.4727C10.4291 18.8758 10.4554 19.2859 10.562 19.6785C10.6489 20.0383 10.8107 20.3758 11.0368 20.669C11.2629 20.9622 11.5483 21.2045 11.8744 21.3803C12.3739 21.6578 12.8982 21.8883 13.4404 22.0689L13.5389 22.1033C13.8958 22.2198 14.2348 22.3853 14.546 22.5951C14.6514 22.6714 14.7361 22.7728 14.7924 22.89C14.8488 23.0072 14.8749 23.1366 14.8686 23.2665C14.8665 23.4034 14.8305 23.5377 14.7639 23.6574C14.6973 23.7771 14.6022 23.8785 14.4869 23.9526C14.2229 24.1094 13.9224 24.1942 13.6153 24.1985C12.8016 24.2554 11.9903 24.0586 11.2933 23.6354C11.2121 23.5887 11.1259 23.5469 11.0471 23.5026L10.53 23.2419L10.4143 23.687C10.3224 24.09 10.295 24.505 10.333 24.9166C10.3372 25.0851 10.3886 25.249 10.4813 25.3898C10.574 25.5307 10.7043 25.6427 10.8575 25.7134C11.2289 25.8988 11.6229 26.0352 12.0295 26.1192L12.2758 26.1659V26.2348C12.2315 26.6553 12.1871 27.0758 12.1404 27.4963C12.1281 27.5551 12.1277 27.6158 12.1391 27.6747C12.1504 27.7337 12.1734 27.7898 12.2066 27.8399C12.2398 27.8899 12.2825 27.9329 12.3324 27.9664C12.3824 27.9999 12.4384 28.0232 12.4974 28.0349C12.6999 28.0824 12.9073 28.1064 13.1154 28.1062C13.302 28.1074 13.488 28.0859 13.6694 28.0423C13.7628 28.0184 13.8471 27.9677 13.9118 27.8964C13.9766 27.8252 14.019 27.7365 14.0339 27.6414C14.0511 27.4988 14.0659 27.3586 14.0782 27.216L14.1767 26.2003C14.3022 26.1831 14.4229 26.1659 14.5411 26.1438C14.7604 26.1032 14.9767 26.0482 15.1887 25.979C16.57 25.5314 17.4047 24.5035 17.4564 23.1485C17.4912 22.7424 17.4345 22.3338 17.2905 21.9525C17.1464 21.5712 16.9188 21.227 16.6242 20.945Z" fill="#0FC3C1"/>
</g>
</svg>
