<svg width="28" height="27" viewBox="0 0 28 27" fill="none" xmlns="http://www.w3.org/2000/svg">
<g id="Layer_1" clip-path="url(#clip0_242_395)">
<path id="Vector" d="M17.5932 26.9945C17.8623 26.5586 18.1034 26.1392 18.3669 25.7364C18.3977 25.6959 18.4364 25.6619 18.4807 25.6363C18.525 25.6108 18.574 25.5941 18.6249 25.5874C18.8359 25.5762 19.0474 25.5762 19.2585 25.5874V19.8155L19.0173 19.7879C18.4567 19.7548 18.2717 19.3519 18.5632 18.8774C18.8875 18.3629 19.0594 17.7695 19.0594 17.164C19.0594 16.5586 18.8875 15.9651 18.5632 15.4507C17.8611 14.2028 16.792 13.1929 15.4963 12.5537C14.5865 12.1088 13.6504 11.7181 12.6929 11.3838C12.4799 11.3011 12.4238 11.2183 12.4238 11.0141C12.4238 9.35866 12.4238 7.70327 12.4238 6.00921C12.4238 5.45741 12.564 5.32497 13.1191 5.31945H22.0898C22.3421 4.41449 22.6057 3.52607 22.8299 2.62662C22.8691 2.42717 22.9569 2.2401 23.0858 2.08148C23.2147 1.92287 23.3809 1.79746 23.57 1.71613C24.6353 1.20294 25.6894 0.651132 26.749 0.126914C26.8474 0.0604302 26.9596 0.0164283 27.0775 -0.00194498C27.1954 -0.0203182 27.3159 -0.0125552 27.4303 0.0207552C27.5447 0.0540655 27.6502 0.112053 27.7389 0.190568C27.8277 0.269084 27.8975 0.366106 27.9433 0.474556C28.0197 0.674332 28.0124 0.895782 27.9231 1.09029C27.8337 1.28479 27.6696 1.43646 27.4667 1.51196C26.5304 1.98651 25.5941 2.45558 24.6634 2.9191C24.5719 2.95584 24.4912 3.01444 24.4285 3.08958C24.3659 3.16473 24.3233 3.25409 24.3045 3.34952C24.1419 3.98962 23.9569 4.62416 23.7718 5.30288H24.1587H27.3882C27.8255 5.30288 28.0274 5.48502 28.0274 5.89888C28.0274 8.26614 28.0274 10.6279 27.9601 12.9896C27.9227 14.4725 27.4258 15.9088 26.536 17.1061C26.0106 17.8266 25.3364 18.4296 24.5576 18.8756C23.7788 19.3216 22.913 19.6006 22.0169 19.6941L21.4563 19.7714V25.5653H22.5776C23.2728 25.5653 23.9681 25.5653 24.6634 25.5653C24.7534 25.5669 24.8422 25.5871 24.9237 25.6248C25.0053 25.6625 25.0778 25.7168 25.1366 25.784C25.1953 25.8512 25.239 25.9299 25.2647 26.0149C25.2904 26.0999 25.2976 26.1892 25.2857 26.2771C25.2951 26.4484 25.2367 26.6165 25.1227 26.7462C25.0087 26.8758 24.848 26.957 24.6745 26.9724L17.5932 26.9945ZM13.6685 6.52795C13.6685 7.63157 13.6685 8.73514 13.6685 9.78909C13.6764 9.83583 13.6939 9.88052 13.7199 9.92037C13.7459 9.96023 13.78 9.99443 13.8199 10.0209C14.4647 10.4458 15.0871 10.8983 15.7599 11.268C16.4764 11.7033 17.2983 11.9421 18.1402 11.9595C18.9821 11.977 19.8134 11.7725 20.548 11.3673C21.5067 10.8651 22.4879 10.3961 23.4467 9.89397C23.9126 9.63507 24.4321 9.48318 24.9661 9.44973C25.5001 9.41629 26.0348 9.50217 26.5304 9.70085C26.6145 9.73396 26.7098 9.75046 26.8219 9.78357V6.52795H13.6685Z" fill="#237B9F"/>
<path id="Vector_2" d="M8.57226 18.3201H1.70963C1.28844 18.3428 0.875248 18.2005 0.560153 17.9245C0.245057 17.6485 0.0536225 17.2611 0.0276092 16.8468C0.0233372 16.5901 0.0706666 16.335 0.166888 16.0964C0.263109 15.8577 0.406323 15.6402 0.588282 15.4562C1.34126 14.6609 2.29507 14.0764 3.35243 13.7622C6.11286 12.7339 9.12903 12.5719 11.9867 13.2986C13.4885 13.6565 14.8699 14.3924 15.9956 15.4341C16.4234 15.8123 16.7442 16.2933 16.9263 16.8302C16.9904 16.9758 17.019 17.1341 17.0097 17.2925C17.0005 17.4509 16.9536 17.6048 16.8729 17.7422C16.7922 17.8795 16.68 17.9963 16.5451 18.0833C16.4103 18.1702 16.2567 18.2249 16.0965 18.2429C15.8218 18.2991 15.5416 18.3251 15.2611 18.3201H8.57226ZM3.87943 15.5997C3.8772 15.71 3.8973 15.8197 3.93849 15.9223C3.97969 16.025 4.04114 16.1186 4.11938 16.1976C4.19763 16.2767 4.29107 16.3396 4.39425 16.3829C4.49742 16.4261 4.6083 16.4488 4.72044 16.4495C4.94101 16.4457 5.15201 16.36 5.31109 16.2096C5.47017 16.0591 5.56559 15.855 5.57828 15.6383C5.5761 15.4156 5.48901 15.2019 5.33429 15.0394C5.17957 14.8769 4.96852 14.7775 4.74289 14.7609C4.51865 14.7665 4.30516 14.8567 4.14656 15.0128C3.98795 15.1689 3.89633 15.379 3.89065 15.5997H3.87943ZM8.42087 13.9443C8.19432 13.95 7.97935 14.0438 7.82282 14.2051C7.6663 14.3664 7.58095 14.5821 7.58547 14.8051C7.59417 15.0262 7.68959 15.2353 7.85164 15.3886C8.01368 15.5419 8.22976 15.6275 8.45454 15.6273C8.67912 15.6106 8.88894 15.5108 9.04183 15.348C9.19473 15.1853 9.27935 14.9715 9.27871 14.7499C9.25934 14.538 9.16102 14.3408 9.00262 14.1961C8.84422 14.0514 8.63695 13.9696 8.42087 13.9663V13.9443ZM12.1998 14.7002C11.9742 14.7031 11.7589 14.7934 11.6005 14.9514C11.442 15.1094 11.3532 15.3225 11.3532 15.5445C11.3859 15.7408 11.4884 15.9193 11.6425 16.0481C11.7965 16.1769 11.9921 16.2476 12.1943 16.2476C12.3964 16.2476 12.5919 16.1769 12.746 16.0481C12.9 15.9193 13.0026 15.7408 13.0353 15.5445C13.0269 15.3291 12.9362 15.1247 12.7813 14.9722C12.6264 14.8198 12.4187 14.7305 12.1998 14.7223V14.7002Z" fill="#237B9F"/>
<path id="Vector_3" d="M8.4156 23.1539H15.8557C16.5285 23.1539 16.7472 23.3967 16.6575 24.0479C16.6074 24.5558 16.4131 25.0395 16.0969 25.4439C15.8785 25.6843 15.6062 25.8713 15.3016 25.9901C14.9969 26.1089 14.6684 26.1561 14.342 26.1281C10.3761 26.1281 6.41399 26.1281 2.45564 26.1281C1.02593 26.1281 0.213007 25.2949 0.128906 23.8823C0.128906 23.3305 0.297114 23.1539 0.83536 23.1539H8.4156Z" fill="#237B9F"/>
<path id="Vector_4" d="M11.0509 21.4543C11.6116 20.8528 12.3124 20.1355 13.0132 19.4347C13.1446 19.3097 13.3184 19.2369 13.501 19.2305C14.093 19.2306 14.6846 19.2638 15.2728 19.3298C15.5285 19.3667 15.7721 19.4612 15.9848 19.6058C16.8482 20.1576 16.9659 21.1232 15.9848 21.7633C15.6094 21.9557 15.2038 22.0844 14.785 22.1441C14.6174 22.1636 14.448 22.1636 14.2804 22.1441C10.3557 22.1441 6.4309 22.1441 2.46134 22.1441C2.0036 22.1366 1.54908 22.068 1.11016 21.9399C0.819739 21.8767 0.559897 21.7178 0.373666 21.4895C0.187434 21.2613 0.0859375 20.9773 0.0859375 20.6845C0.0859375 20.3918 0.187434 20.1078 0.373666 19.8796C0.559897 19.6513 0.819739 19.4924 1.11016 19.4291C1.5479 19.2946 2.00283 19.2222 2.46134 19.214C4.41248 19.214 6.38609 19.214 8.32041 19.214C8.49173 19.2285 8.65334 19.2983 8.78013 19.4126C9.55947 20.0914 10.294 20.7701 11.0509 21.4543Z" fill="#237B9F"/>
</g>
<defs>
<clipPath id="clip0_242_395">
<rect width="28" height="27" fill="white"/>
</clipPath>
</defs>
</svg>
