<svg width="21" height="14" viewBox="0 0 21 14" fill="none" xmlns="http://www.w3.org/2000/svg">
<g id="Layer_1" clip-path="url(#clip0_242_279)">
<path id="Vector" d="M20.9581 0.376943C20.9581 0.0942502 20.8588 2.10893e-05 20.5613 2.10893e-05H17.3304C17.2618 -0.00708206 17.1924 0.00585489 17.1317 0.0371176C17.0709 0.0683802 17.0216 0.116492 16.9904 0.175028C16.9904 0.323105 16.9905 0.430782 17.1038 0.538474C17.2172 0.646167 17.6422 1.06348 17.9256 1.30579C18.209 1.5481 18.0673 1.52115 17.9256 1.65576L12.3993 6.9058C12.3182 6.99659 12.2173 7.06952 12.1035 7.11954C11.9897 7.16957 11.8658 7.19546 11.7404 7.19546C11.6151 7.19546 11.4911 7.16957 11.3774 7.11954C11.2636 7.06952 11.1627 6.99659 11.0816 6.9058L9.93372 5.81542C9.68336 5.56322 9.38141 5.36225 9.04637 5.22491C8.71132 5.08758 8.35025 5.01675 7.98534 5.01675C7.62044 5.01675 7.25937 5.08758 6.92432 5.22491C6.58927 5.36225 6.28732 5.56322 6.03696 5.81542C5.0734 6.7308 4.10984 7.65965 3.20295 8.50772L1.40333 10.1769C0.935721 10.6212 0.48228 11.0789 -0.0136719 11.5231V14L0.113983 13.8923L4.83254 9.45001L6.07951 8.26539C6.49045 7.86154 6.90138 7.44423 7.32648 7.04038C7.40808 6.93466 7.51475 6.84872 7.63784 6.78946C7.76093 6.73019 7.89699 6.69928 8.03499 6.69928C8.17298 6.69928 8.30904 6.73019 8.43214 6.78946C8.55523 6.84872 8.66189 6.93466 8.74349 7.04038L9.82043 8.07695C10.1253 8.39017 10.5041 8.63008 10.9257 8.77693C11.5598 8.98725 12.2547 8.95835 12.867 8.69616C13.0705 8.62493 13.2614 8.5251 13.4337 8.40001C13.9013 7.9827 14.3406 7.53847 14.8507 7.05385L19.3427 2.8L19.5411 2.63847L20.4905 3.56732C20.5342 3.6256 20.5957 3.66974 20.6666 3.69381C20.7375 3.71788 20.8144 3.72073 20.8871 3.70194C21.0572 3.70194 21.0855 3.49999 21.0855 3.33846L20.9581 0.376943Z" fill="#0FC3C1"/>
</g>
<defs>
<clipPath id="clip0_242_279">
<rect width="21" height="14" fill="white"/>
</clipPath>
</defs>
</svg>
