<svg width="28" height="27" viewBox="0 0 28 27" fill="none" xmlns="http://www.w3.org/2000/svg">
<g id="Group 6356360">
<path id="Vector" d="M19.6947 3.71995C20.9932 3.86097 21.4103 4.237 22.3093 6.07017C23.1083 5.08896 23.9251 4.14888 25.4174 4.46616C25.5056 3.71997 25.6231 2.99728 25.676 2.26871C25.6534 1.988 25.5941 1.71144 25.4997 1.44612C25.4468 1.19935 25.2882 0.923245 25.6172 0.75873C25.6961 0.7213 25.7818 0.699957 25.8691 0.695973C25.9564 0.691989 26.0436 0.70541 26.1256 0.735492C26.2077 0.765574 26.2829 0.811724 26.3469 0.871192C26.4109 0.930659 26.4625 1.00224 26.4985 1.08184C26.7486 1.58487 26.9455 2.11264 27.0861 2.65652C27.2299 3.44806 27.3124 4.24948 27.3329 5.05371C27.4031 6.46579 27.0622 7.86793 26.3516 9.09021C26.0931 9.54262 25.8523 10.0126 25.5879 10.4592C25.1795 11.1631 24.917 11.9421 24.816 12.7497C24.7151 13.5572 24.7778 14.3768 25.0003 15.1596C25.3176 16.4934 25.6878 17.8213 25.8993 19.1668C26.1284 20.6474 26.2165 22.1515 26.3458 23.6439C26.4104 24.3725 26.4163 25.1069 26.4751 25.8414C26.4917 25.9721 26.4596 26.1043 26.3848 26.2127C26.31 26.3211 26.1977 26.3981 26.0696 26.4289C25.7582 26.5229 25.4409 26.5876 25.1237 26.6581C22.0265 27.2916 18.8136 27.0412 15.852 25.9354C15.272 25.7223 14.7067 25.4711 14.1599 25.1833C13.6781 24.9483 13.6194 24.8014 13.7545 24.2785C14.3421 22.1163 14.8591 19.9364 15.5172 17.8154C15.9558 16.6036 16.4821 15.4254 17.0918 14.29C17.8709 12.7058 18.0984 10.9067 17.7381 9.17836C17.5854 8.36753 17.4913 7.54493 17.3503 6.72823C17.2424 5.78925 17.3243 4.83815 17.5913 3.93146C17.7413 3.10406 18.0335 2.30889 18.4549 1.58125C18.7428 1.12296 19.0425 0.688166 19.4009 0.259252C19.4759 0.147924 19.5868 0.0656334 19.715 0.0260806C19.8433 -0.0134722 19.9813 -0.00789894 20.1059 0.0418597C20.4702 0.135868 20.6113 0.365014 20.388 0.629414C19.8005 1.36386 19.8005 2.23346 19.7241 3.07954C19.6947 3.28518 19.6947 3.51431 19.6947 3.71995Z" fill="#00C489"/>
<path id="Vector_2" d="M6.08776 13.8083C5.96437 13.9669 5.85277 14.0491 5.82339 14.1549C5.66475 14.7072 5.18293 15.001 4.84215 15.4005C4.66588 15.612 4.44849 15.5063 4.25459 15.3418L2.11589 13.3911L0.253387 11.6931C-0.0815183 11.3876 -0.0873939 11.2582 0.253387 10.9116C0.44728 10.7001 0.623546 10.4768 0.840941 10.2888C0.989781 10.1908 1.14705 10.1062 1.31094 10.0361C1.4017 9.9897 1.48655 9.93254 1.56362 9.8658C2.77986 8.69069 4.00782 7.51558 5.21231 6.34047C5.83194 5.71465 6.56335 5.21043 7.36866 4.85394C7.55667 4.77169 7.62717 4.67767 7.57429 4.4779C7.5419 4.34336 7.53006 4.20466 7.53907 4.06657C7.53387 4.01385 7.54241 3.96069 7.56396 3.91229C7.58551 3.8639 7.61927 3.82199 7.66193 3.79058C7.7046 3.75917 7.7547 3.7394 7.80731 3.7332C7.85993 3.727 7.9133 3.73459 7.96209 3.75522C9.15561 4.06001 10.3976 4.12588 11.6167 3.94909C12.8022 3.86763 13.9517 3.50725 14.9716 2.89734C15.2007 2.75633 15.4123 2.8974 15.471 3.17355C15.471 3.27343 15.471 3.37914 15.5121 3.4849C15.5533 3.59066 15.5415 3.66709 15.5591 3.7611L16.3876 3.94909C16.3347 4.3075 16.2877 4.64828 16.2348 4.98319C16.1667 5.78656 16.2262 6.59562 16.4111 7.38038C16.5756 8.55549 16.7578 9.7306 16.8518 10.9057C16.8998 12.1272 16.6348 13.3407 16.0821 14.431C15.612 15.4828 15.0304 16.4934 14.6308 17.5686C14.0961 19.0199 13.6672 20.5063 13.2266 21.9929C12.9387 22.9917 12.7154 24.0023 12.451 25.007C12.451 25.1128 12.3041 25.2538 12.216 25.2656C11.0409 25.4183 9.92453 25.5476 8.7788 25.6768C8.6128 25.6946 8.44532 25.6946 8.27932 25.6768C8.07589 25.6771 7.88013 25.5992 7.73251 25.4592C7.58488 25.3192 7.49669 25.1279 7.48614 24.9247C7.351 23.9376 7.23348 22.9506 7.1101 21.987L6.26405 15.0245C6.1818 14.6073 6.14064 14.2489 6.08776 13.8083ZM4.97727 14.243L1.25808 10.8587L0.823298 11.3229L4.54249 14.7131L4.97727 14.243ZM14.7777 3.66707C12.7155 4.62213 10.4049 4.90376 8.1736 4.47202C8.10897 4.74229 8.23237 4.87156 8.47914 4.91857C8.61068 4.95058 8.74409 4.97413 8.87864 4.98907C10.0921 5.08465 11.3129 5.00549 12.5039 4.75403C13.2054 4.59599 13.8978 4.39985 14.578 4.16648C14.6309 4.15692 14.6805 4.13407 14.7221 4.10006C14.7638 4.06606 14.7962 4.02204 14.8161 3.97211C14.8361 3.92218 14.843 3.86796 14.8363 3.81461C14.8296 3.76125 14.8094 3.71049 14.7777 3.66707Z" fill="#00C489"/>
</g>
</svg>
