<svg width="195" height="75" viewBox="0 0 195 75" fill="none" xmlns="http://www.w3.org/2000/svg">
<path id="Vector" d="M3.82617 74.9163C17.1839 71.9376 29.7432 66.1087 40.6475 57.8271C43.4768 55.6836 46.1909 53.3917 48.7782 50.9607C51.3769 48.4974 53.7597 45.8457 56.1842 43.222C57.3965 41.9101 58.6367 40.6122 59.9326 39.3841C60.5805 38.77 61.2424 38.1699 61.9321 37.5977C62.0018 37.5349 62.8936 36.8161 62.6288 37.0394C63.0051 36.7533 63.3883 36.4743 63.7784 36.2091C64.4752 35.7276 65.1718 35.274 65.9382 34.8623C66.3075 34.653 66.6837 34.4576 67.0599 34.2692L67.6312 33.997C67.7496 33.9482 68.3279 33.7179 67.9308 33.8645C68.7069 33.5495 69.5029 33.2861 70.3136 33.076C70.7107 32.9713 71.1218 32.8806 71.5259 32.8038C71.7349 32.7619 71.937 32.727 72.146 32.6991C71.721 32.7549 72.2644 32.6991 72.4246 32.6991C73.2038 32.6398 73.9863 32.6398 74.7655 32.6991C74.9815 32.6991 75.1906 32.734 75.4065 32.7619C74.9676 32.7061 75.4901 32.7619 75.5528 32.7619C76.0684 32.8596 76.584 32.9712 77.0926 33.1038C78.594 33.4977 80.0456 34.0619 81.4192 34.7855C84.6868 36.3905 87.7802 38.2746 91.1245 39.7539C94.7322 41.35 98.4898 42.5819 102.342 43.4314C106.314 44.3884 110.417 44.6855 114.485 44.3106C121.877 43.4383 128.294 39.7469 133.944 35.0577C139.595 30.3685 144.312 24.7232 149.746 19.8177C152.228 17.5241 154.938 15.4921 157.835 13.7537C159.298 12.8675 160.803 12.0511 162.336 11.3044C163.081 10.9416 163.833 10.6066 164.6 10.2647C164.6 10.2647 165.06 10.0763 164.809 10.174C164.558 10.2717 165.115 10.0554 165.171 10.0344L166.474 9.52506C169.676 8.32173 172.98 7.41314 176.346 6.8106C176.758 6.73384 177.162 6.66402 177.573 6.60122L178.186 6.5105C178.255 6.5105 178.778 6.42677 178.311 6.5105C179.182 6.39188 180.06 6.30114 180.938 6.23136C182.638 6.0918 184.352 6.03597 186.059 6.04993C187.766 6.06388 189.368 6.17556 191.019 6.34304C192.671 6.51051 194.099 4.84279 194.029 3.32856C194.01 2.53519 193.686 1.7797 193.126 1.21854C192.566 0.657369 191.811 0.333464 191.019 0.313997C176.996 -1.04733 162.95 2.66584 151.425 10.7811C145.252 15.1772 140.236 20.8016 134.864 26.0839C133.568 27.354 132.251 28.603 130.886 29.7962C129.747 30.8071 128.557 31.7574 127.319 32.6433C125.88 33.6694 124.376 34.6017 122.818 35.4345C121.518 36.1676 120.148 36.7684 118.728 37.2279C115.325 38.3604 111.713 38.725 108.152 38.2955C107.225 38.2048 106.689 38.1281 105.707 37.9536C104.724 37.7792 103.735 37.5698 102.76 37.3395C100.913 36.8999 99.0949 36.3626 97.2973 35.7415C93.9523 34.5075 90.7154 32.9974 87.62 31.2268C84.4151 29.4823 81.0708 27.6958 77.4618 26.991C69.7074 25.4838 62.5034 29.0356 56.8113 34.0947C54.0941 36.5091 51.6904 39.2515 49.2241 41.9241C46.8822 44.472 44.4077 46.8944 41.811 49.1813C39.3826 51.3296 36.823 53.3246 34.1472 55.1545C31.351 57.0818 28.4531 58.8568 25.4661 60.4718C23.9682 61.2812 22.4563 62.0487 20.9166 62.7745C20.2199 63.1024 19.5232 63.4234 18.8264 63.7305C17.8092 64.184 17.7326 64.212 16.7363 64.6306C13.5859 65.8952 10.3693 66.9877 7.10069 67.9033C5.51218 68.3453 3.91438 68.7431 2.3073 69.0966C1.54339 69.3164 0.896252 69.8279 0.505297 70.5209C0.114342 71.214 0.0108629 72.0331 0.217154 72.8019C0.448769 73.5605 0.962752 74.201 1.65268 74.5906C2.34261 74.9803 3.15572 75.0894 3.92372 74.8953L3.82617 74.9163Z" fill="url(#paint0_linear_242_294)"/>
<defs>
<linearGradient id="paint0_linear_242_294" x1="2.00097" y1="75" x2="190.501" y2="3.5" gradientUnits="userSpaceOnUse">
<stop stop-color="#FFAA40"/>
<stop offset="0.473862" stop-color="#0FC2C0"/>
<stop offset="0.956755" stop-color="#015958"/>
</linearGradient>
</defs>
</svg>
