<svg width="29" height="26" viewBox="0 0 29 26" fill="none" xmlns="http://www.w3.org/2000/svg">
<g id="Group 6356356">
<path id="Vector" d="M0.000309127 20.9608H4.27442V2.99279C4.25378 2.30099 4.48144 1.62464 4.91619 1.08611C5.35094 0.547583 5.96405 0.182445 6.64465 0.0567485C6.86523 0.0159993 7.08942 -0.00194143 7.31367 0.00322119H23.7219C24.4082 -0.0293923 25.0833 0.186515 25.6232 0.611342C26.1632 1.03617 26.5319 1.64143 26.6618 2.31612C26.7212 2.7531 26.7442 3.19426 26.7306 3.63505C26.7306 4.09381 26.7306 4.55256 26.7306 5.03808H22.4565V7.27071C22.942 7.40834 23.4275 7.51157 23.8901 7.6836C25.2302 8.18624 26.367 9.11718 27.1238 10.332C27.8807 11.5467 28.2154 12.9774 28.0759 14.4019C27.9365 15.8263 27.3307 17.1649 26.3526 18.2099C25.3746 19.2548 24.0789 19.9477 22.6668 20.1809C22.4642 20.2153 22.4259 20.2918 22.4298 20.4753C22.4298 21.3393 22.4298 22.2033 22.4298 23.0673C22.4381 23.454 22.3682 23.8384 22.2242 24.1974C22.0803 24.5564 21.8653 24.8826 21.5922 25.1564C21.319 25.4303 20.9933 25.6461 20.6347 25.791C20.2761 25.9359 19.8919 26.0068 19.5052 25.9995H2.92873C2.54698 26.0035 2.16822 25.9317 1.81445 25.7882C1.46069 25.6447 1.13896 25.4323 0.867947 25.1634C0.596929 24.8945 0.382015 24.5745 0.235699 24.2219C0.0893822 23.8693 0.0145818 23.4911 0.015616 23.1093C-0.00349892 22.4021 0.000309127 21.6948 0.000309127 20.9608ZM5.78831 20.9608H18.1366C18.1391 20.9875 18.1391 21.0144 18.1366 21.0411C18.1366 21.7063 18.1366 22.3753 18.1366 23.0405C18.1267 23.2281 18.1551 23.4158 18.2201 23.592C18.2851 23.7683 18.3853 23.9295 18.5146 24.0657C18.6439 24.202 18.7996 24.3106 18.9722 24.3847C19.1448 24.4589 19.3307 24.4971 19.5186 24.4971C19.7064 24.4971 19.8923 24.4589 20.0649 24.3847C20.2375 24.3106 20.3932 24.202 20.5225 24.0657C20.6518 23.9295 20.752 23.7683 20.817 23.592C20.882 23.4158 20.9104 23.2281 20.9006 23.0405C20.9006 22.1842 20.9006 21.3278 20.9006 20.4753C20.9006 20.395 20.9006 20.3186 20.9006 20.2306C19.3651 20.0683 17.9385 19.3617 16.8788 18.2388C15.8701 17.1791 15.2485 15.8099 15.1146 14.353C14.9807 12.896 15.3423 11.4365 16.141 10.2106C16.669 9.39773 17.3715 8.71277 18.1975 8.20555C19.0234 7.69832 19.9521 7.38159 20.9159 7.27836V6.96488C20.9159 5.9709 20.9159 4.98074 20.9159 3.99059C20.9159 3.16865 20.8164 2.3276 21.2561 1.54007C21.1337 1.54007 21.0573 1.54007 20.977 1.54007H7.27545C7.07428 1.52626 6.87251 1.55597 6.68385 1.62719C6.4952 1.69841 6.32409 1.80946 6.18223 1.95277C6.04036 2.09608 5.93106 2.26829 5.86176 2.45766C5.79247 2.64703 5.7648 2.84912 5.78065 3.05015C5.78065 8.91205 5.78065 14.774 5.78065 20.6359L5.78831 20.9608ZM21.5811 18.7549C22.5698 18.7602 23.5378 18.4721 24.3627 17.9269C25.1875 17.3818 25.8322 16.6042 26.2149 15.6926C26.5976 14.7809 26.7013 13.7762 26.5128 12.8056C26.3242 11.835 25.852 10.9422 25.1558 10.2401C24.4596 9.53807 23.5708 9.05832 22.6018 8.86162C21.6329 8.66492 20.6273 8.76012 19.7125 9.13516C18.7977 9.5102 18.0147 10.1482 17.4626 10.9685C16.9105 11.7887 16.6142 12.7543 16.6112 13.743C16.6071 15.0669 17.1278 16.3385 18.0593 17.2793C18.9908 18.2201 20.2572 18.7535 21.5811 18.7626V18.7549ZM16.6915 22.4823H1.5295V22.9832C1.51161 23.1876 1.53906 23.3935 1.60986 23.5862C1.68066 23.7788 1.79311 23.9535 1.93915 24.0977C2.08519 24.2419 2.26121 24.3521 2.45473 24.4205C2.64825 24.4889 2.85447 24.5137 3.05869 24.4932H16.6915C16.7832 24.4932 16.875 24.4932 16.9514 24.4932C16.8438 24.1693 16.7583 23.8385 16.6953 23.5031C16.6723 23.1633 16.671 22.8223 16.6915 22.4823ZM22.4259 3.53182H25.2167C25.2341 3.25684 25.2341 2.98105 25.2167 2.70607C25.1685 2.39141 25.0133 2.10299 24.7773 1.88939C24.5413 1.6758 24.2388 1.5501 23.921 1.53349C23.6031 1.51687 23.2891 1.61036 23.0321 1.79818C22.7751 1.98601 22.5907 2.2567 22.51 2.56462C22.4613 2.8849 22.4333 3.20795 22.4259 3.53182Z" fill="#16ADB6"/>
<path id="Vector_2" d="M19.2868 4.80106V6.27292H7.43555V4.80106H19.2868Z" fill="#16ADB6"/>
<path id="Vector_3" d="M15.8227 8.15382V9.62185H7.41211V8.15382H15.8227Z" fill="#16ADB6"/>
<path id="Vector_4" d="M15.8207 18.1968V19.6801H7.41016V18.1968H15.8207Z" fill="#16ADB6"/>
<path id="Vector_5" d="M7.42188 12.9746V11.4989H13.8062V12.9746H7.42188Z" fill="#16ADB6"/>
<path id="Vector_6" d="M13.8044 14.8479V16.3274H7.42773V14.8479H13.8044Z" fill="#16ADB6"/>
<path id="Vector_7" d="M22.3223 17.8795H21.1487V16.6867C20.4274 16.5718 19.7501 16.2655 19.1875 15.7998L19.6692 14.8058C20.0827 15.0457 20.5104 15.2602 20.9499 15.4481C21.273 15.5536 21.6116 15.604 21.9515 15.5972C22.0972 15.6144 22.2442 15.5776 22.3647 15.4937C22.4852 15.4099 22.5707 15.2849 22.6052 15.1422C22.6587 14.844 22.5211 14.6108 22.1541 14.4656C21.7871 14.3203 21.4163 14.2285 21.0493 14.0833C20.817 14.0133 20.5896 13.9277 20.3688 13.8271C20.1378 13.7128 19.9394 13.5419 19.7922 13.3304C19.6449 13.1189 19.5534 12.8736 19.5264 12.6173C19.4993 12.3609 19.5374 12.102 19.6372 11.8643C19.7371 11.6267 19.8954 11.4182 20.0974 11.2581C20.3433 11.08 20.6172 10.9443 20.9078 10.8567C21.0913 10.7955 21.1487 10.7229 21.141 10.5394C21.141 10.245 21.141 9.95063 21.141 9.64096H22.3376V10.7649C22.919 10.8528 23.4753 11.0626 23.9701 11.3804L23.5074 12.3744C22.9608 12.2023 22.4561 12.0227 21.94 11.8851C21.7381 11.8452 21.5303 11.8452 21.3284 11.8851C21.2309 11.8964 21.1401 11.9404 21.0708 12.0097C21.0014 12.0791 20.9574 12.1699 20.9461 12.2673C20.9276 12.3718 20.9447 12.4793 20.9946 12.5729C21.0445 12.6665 21.1243 12.7406 21.2213 12.7834C21.5042 12.9134 21.8024 13.0167 22.0968 13.1275C22.3912 13.2384 22.7161 13.3225 23.0143 13.4486C23.3031 13.5445 23.5549 13.7276 23.735 13.9728C23.9151 14.218 24.0146 14.5131 24.0198 14.8173C24.0489 15.1435 23.9759 15.4707 23.8108 15.7536C23.6457 16.0365 23.3968 16.2611 23.0984 16.3962C22.9844 16.4499 22.8669 16.4959 22.7467 16.5338C22.3644 16.6561 22.3644 16.6561 22.3644 17.0767C22.3644 17.2908 22.3644 17.5087 22.3644 17.7228C22.3376 17.7916 22.3338 17.8183 22.3223 17.8795Z" fill="#16ADB6"/>
</g>
</svg>
