<svg width="30" height="30" viewBox="0 0 30 30" fill="none" xmlns="http://www.w3.org/2000/svg">
<path id="Vector" d="M14.2135 9.45143L15.3268 10.661C15.4297 10.5133 15.5431 10.3733 15.6662 10.242C16.2031 9.6886 16.748 9.14314 17.2928 8.59766C17.3867 8.4784 17.5047 8.38034 17.6391 8.31007C17.7736 8.23981 17.9214 8.19887 18.0728 8.18993C18.2242 8.18099 18.3758 8.2043 18.5176 8.25825C18.6593 8.31221 18.788 8.39561 18.8953 8.50299C19.0025 8.61037 19.0858 8.73933 19.1397 8.88128C19.1936 9.02323 19.2169 9.17496 19.2079 9.32655C19.199 9.47815 19.1581 9.6261 19.0879 9.76072C19.0178 9.89535 18.9199 10.0135 18.8008 10.1076L16.7164 12.1788L18.7061 14.3529L20.0246 13.0169C20.3167 12.7244 20.6009 12.4319 20.901 12.1473C20.9962 12.0367 21.1132 11.9468 21.2446 11.8832C21.3759 11.8197 21.5189 11.7839 21.6647 11.7779C21.8104 11.772 21.9559 11.7961 22.0919 11.8487C22.228 11.9013 22.3519 11.9813 22.4559 12.0838C22.5598 12.1862 22.6417 12.309 22.6964 12.4444C22.751 12.5798 22.7773 12.725 22.7736 12.871C22.77 13.0171 22.7365 13.1607 22.6751 13.2933C22.6138 13.4258 22.5259 13.5443 22.4169 13.6414C21.7458 14.3292 21.059 15.0012 20.3878 15.6811L20.1509 15.934L21.3195 17.2226C20.6325 17.9499 19.9694 18.6693 19.2983 19.3887C18.8719 19.8473 18.4376 20.3058 18.0113 20.7722C17.2578 21.6297 16.2434 22.2151 15.1247 22.438C14.0059 22.6609 12.845 22.5089 11.8211 22.0055L11.6237 21.9265C11.2224 22.5555 11.0495 23.3036 11.1342 24.0452C11.2003 24.5687 11.3749 25.0726 11.6469 25.5246C11.9188 25.9766 12.282 26.3667 12.7133 26.6699C13.4311 27.212 14.2618 27.5852 15.1435 27.7617C16.0251 27.9383 16.9351 27.9136 17.806 27.6896C20.3658 27.1536 22.6903 25.8197 24.4461 23.8792C26.2215 21.9563 27.3692 19.5372 27.7363 16.9445C28.1034 14.3518 27.6724 11.7086 26.5007 9.36747C25.329 7.0263 23.4725 5.09843 21.1784 3.84088C18.8844 2.58332 16.2621 2.05586 13.661 2.32885C11.06 2.60184 8.60382 3.66231 6.62011 5.36882C4.63641 7.07534 3.21939 9.34679 2.55804 11.8803C1.8967 14.4139 2.02245 17.0891 2.91851 19.5492C3.81457 22.0094 5.43832 24.1376 7.57332 25.65C7.69147 25.7246 7.80491 25.8065 7.91287 25.8951C8.11007 26.0553 8.241 26.2829 8.28037 26.534C8.31974 26.7851 8.26478 27.042 8.12607 27.2549C7.99992 27.4744 7.79381 27.6365 7.55096 27.7072C7.30811 27.7779 7.04734 27.7518 6.82329 27.6343C6.03074 27.2282 5.31052 26.694 4.69153 26.0532C2.15598 23.6563 0.540906 20.4445 0.127896 16.9776C-0.359775 13.2614 0.557696 9.49697 2.70021 6.42352C4.84272 3.35006 8.05544 1.18967 11.7074 0.366633C15.3593 -0.456402 19.1866 0.117444 22.4377 1.97536C25.6887 3.83327 28.1287 6.84099 29.2782 10.408C30.4518 14.0776 30.1869 18.0569 28.5372 21.5381C26.8876 25.0193 23.9768 27.7415 20.3957 29.1522C19.2451 29.6487 18.015 29.9352 16.7637 29.9981C13.9845 30.0455 11.5843 29.2075 9.97359 26.8359C9.32603 25.9606 8.96282 24.9072 8.93316 23.8184C8.9035 22.7295 9.20886 21.6579 9.80782 20.7486C9.86063 20.6869 9.88964 20.6084 9.88964 20.5272C9.88964 20.446 9.86063 20.3674 9.80782 20.3058C9.11971 19.3375 8.78289 18.1628 8.85326 16.9765C8.92363 15.7902 9.39695 14.6636 10.1947 13.7837C11.4738 12.3765 12.7844 11.0009 14.0871 9.6095C14.1247 9.55333 14.167 9.50048 14.2135 9.45143ZM18.4219 17.2069L14.1898 12.582C13.345 13.4912 12.5002 14.3529 11.7028 15.262C11.1873 15.8607 10.9204 16.6345 10.9572 17.4241C10.9939 18.2137 11.3314 18.9592 11.9001 19.5073C12.473 20.0482 13.2269 20.3554 14.0142 20.3685C14.8014 20.3817 15.5653 20.1 16.1558 19.5786C16.9375 18.8671 17.6481 18.0448 18.4219 17.2305V17.2069Z" fill="#DF6F5B"/>
</svg>
