<svg width="28" height="26" viewBox="0 0 28 26" fill="none" xmlns="http://www.w3.org/2000/svg">
<g id="Group 6356359">
<path id="Vector" d="M12.8079 26H1.82815C0.571467 26 0 25.4285 0 24.1691V7.76722C0 6.55386 0.593144 5.94177 1.80379 5.94177C9.12182 5.94177 16.4407 5.94177 23.7606 5.94177C24.9793 5.94177 25.5915 6.57554 25.5969 7.80785C25.5969 8.8912 25.5969 9.99891 25.5969 11.0958C25.5969 11.7675 25.5969 11.7702 24.9387 11.7702H17.0573C15.0802 11.7702 13.8073 13.0269 13.8073 15.0013C13.7778 15.8224 13.7986 16.6446 13.8696 17.4632C14.0673 19.0449 15.2536 20.0416 16.8488 20.047C19.5247 20.047 22.2006 20.047 24.8764 20.047C25.5779 20.047 25.5806 20.047 25.5806 20.7322C25.5806 21.8589 25.5806 22.9883 25.5806 24.1177C25.5806 25.3906 24.9821 25.9892 23.7227 25.9892L12.8079 26Z" fill="#1C45B9"/>
<path id="Vector_2" d="M21.0793 12.691C22.5445 12.691 24.0098 12.691 25.475 12.691C26.4852 12.691 27.1407 13.3275 27.1542 14.3432C27.1704 15.4373 27.1704 16.5324 27.1542 17.6284C27.1407 18.6034 26.5313 19.2534 25.5562 19.2534C22.5445 19.2751 19.5328 19.2751 16.5211 19.2534C15.5678 19.2534 14.9557 18.6089 14.9259 17.6095C14.8907 16.5261 14.888 15.4184 14.9259 14.3242C14.9611 13.2815 15.6273 12.6992 16.6809 12.6992L21.0793 12.691ZM18.6418 14.9444C18.3661 14.9415 18.1006 15.0479 17.9032 15.2402C17.7057 15.4326 17.5925 15.6953 17.5882 15.9709C17.5888 16.2464 17.6965 16.511 17.8885 16.7086C18.0806 16.9062 18.342 17.0214 18.6174 17.0299C18.7578 17.0336 18.8975 17.0087 19.028 16.9566C19.1585 16.9046 19.2771 16.8265 19.3764 16.7272C19.4757 16.6279 19.5538 16.5093 19.6059 16.3788C19.6579 16.2483 19.6828 16.1086 19.6791 15.9682C19.683 15.8308 19.6584 15.6942 19.607 15.5667C19.5555 15.4393 19.4783 15.3239 19.3801 15.2278C19.282 15.1316 19.165 15.0568 19.0365 15.0081C18.908 14.9593 18.7709 14.9376 18.6337 14.9444H18.6418Z" fill="#1C45B9"/>
<path id="Vector_3" d="M22.5114 5.06424H10.0529L10.0312 4.97757C10.191 4.92611 10.3481 4.87195 10.5079 4.8259C13.5603 3.97547 16.6099 3.1115 19.6676 2.28545C20.1113 2.17816 20.5722 2.16342 21.0218 2.24212C21.2549 2.28139 21.4703 2.39128 21.6388 2.55694C21.8074 2.72261 21.921 2.93604 21.9643 3.16838C22.1377 3.79131 22.3218 4.39798 22.5114 5.06424Z" fill="#1C45B9"/>
<path id="Vector_4" d="M17.237 2.04169C16.9824 2.12836 16.8199 2.19066 16.652 2.2367C13.4019 3.15213 10.1762 4.08382 6.9262 4.96133C6.30869 5.12925 5.63161 5.08321 4.98431 5.13467L4.93555 4.97216C5.05402 4.8879 5.17697 4.81015 5.30388 4.73924C8.3481 3.22797 11.3941 1.7176 14.4419 0.208132C15.3547 -0.241458 16.2105 0.0510463 16.6818 0.952936C16.8578 1.29148 17.0285 1.6246 17.237 2.04169Z" fill="#1C45B9"/>
</g>
</svg>
