<svg width="21" height="29" viewBox="0 0 21 29" fill="none" xmlns="http://www.w3.org/2000/svg">
<g id="Group 6356357">
<path id="Vector" d="M20.999 14.5C20.999 16.2333 20.999 17.9679 20.999 19.7039C20.999 22.4898 20.999 25.2736 20.999 28.0555C21.0064 28.2467 20.9526 28.4352 20.8457 28.5925C20.7388 28.7498 20.5847 28.8674 20.4065 28.9275C20.2406 28.9962 20.0586 29.0137 19.8831 28.9779C19.7075 28.9421 19.5461 28.8546 19.4189 28.7261C19.0595 28.3777 18.7039 28.0233 18.3524 27.6668C18.2793 27.5903 18.2378 27.5963 18.1549 27.6668C17.8092 28.0112 17.4498 28.3435 17.1081 28.6959C16.9346 28.8764 16.6983 28.9799 16.4505 28.9836C16.2026 28.9874 15.9634 28.8912 15.7847 28.7161C15.4312 28.3536 15.0599 28.0112 14.7004 27.6567C14.6332 27.5923 14.5957 27.5903 14.5286 27.6567C14.1849 27.9991 13.8274 28.3274 13.4916 28.6798C13.4039 28.7747 13.2983 28.8505 13.1812 28.9027C13.064 28.9549 12.9377 28.9824 12.8098 28.9836C12.6819 28.9847 12.5551 28.9594 12.4371 28.9093C12.319 28.8592 12.2122 28.7852 12.1229 28.6919C11.793 28.3475 11.4415 28.0253 11.0998 27.6849C10.9773 27.5661 10.9793 27.5661 10.8529 27.6849C10.4756 28.0515 10.1102 28.4281 9.72114 28.7785C9.56135 28.9175 9.35717 28.9919 9.14719 28.9879C8.93721 28.9838 8.73597 28.9014 8.58149 28.7563C8.18647 28.3958 7.81121 28.0213 7.43199 27.6487C7.36088 27.5802 7.32137 27.5842 7.25224 27.6487C6.875 28.0192 6.49577 28.3858 6.11655 28.7523C5.94142 28.9023 5.71776 28.9805 5.48918 28.9716C5.2606 28.9626 5.04348 28.8673 4.88013 28.704C4.61941 28.4301 4.34488 28.1683 4.07429 27.8984C3.97554 27.8038 3.87678 27.7152 3.77407 27.6205C3.72074 27.5702 3.6832 27.5802 3.63382 27.6205C3.28028 27.9709 2.92476 28.3153 2.57121 28.6677C2.4385 28.8167 2.26148 28.9171 2.06735 28.9535C1.87323 28.9899 1.67275 28.9602 1.49676 28.8691C1.33822 28.7996 1.20409 28.6827 1.11206 28.5338C1.02002 28.385 0.974411 28.2112 0.981258 28.0354C0.981258 26.6115 0.981258 25.1857 0.981258 23.7599C0.981258 22.334 0.981258 20.9626 0.981258 19.5649V0.978759C0.973642 0.791694 1.02131 0.606618 1.11808 0.447508C1.21486 0.288397 1.35629 0.162592 1.52403 0.0864113C1.69176 0.0102306 1.87806 -0.0128146 2.05879 0.0202568C2.23953 0.0533281 2.40636 0.140986 2.53765 0.271882C2.82601 0.563896 3.11832 0.851884 3.41063 1.14188C3.48766 1.21841 3.57064 1.29092 3.65162 1.36543C3.73259 1.43995 3.75432 1.38556 3.79975 1.34126C4.02294 1.12174 4.24611 0.902239 4.47324 0.684739C4.65163 0.498665 4.84093 0.323799 5.0401 0.161121C5.19659 0.0471398 5.38648 -0.00916331 5.57851 0.00145032C5.77054 0.0120639 5.95332 0.0889707 6.09681 0.219531C6.47603 0.567934 6.84338 0.934453 7.21273 1.29293C7.34901 1.42584 7.34903 1.42786 7.48136 1.29293C7.82701 0.95862 8.1845 0.634384 8.51434 0.285981C8.68864 0.11563 8.92075 0.0205272 9.16219 0.0205272C9.40362 0.0205272 9.63571 0.11563 9.81001 0.285981C10.1596 0.646467 10.529 0.984805 10.8845 1.33522C10.9556 1.40571 11.001 1.41578 11.082 1.33522C11.4395 0.982791 11.8167 0.652509 12.1584 0.285981C12.3305 0.116076 12.56 0.0199168 12.7996 0.0172944C13.0391 0.0146721 13.2705 0.105785 13.4462 0.271882C13.7997 0.632368 14.1711 0.974731 14.5286 1.33119C14.6036 1.40369 14.6471 1.40168 14.7261 1.33119C15.0836 0.978759 15.4588 0.646475 15.8025 0.281962C15.9742 0.114387 16.202 0.0196788 16.4397 0.0170609C16.6774 0.014443 16.9072 0.10411 17.0824 0.267863C17.4379 0.624321 17.8073 0.97071 18.1667 1.32515C18.2418 1.40168 18.2892 1.40974 18.3642 1.32515C18.6342 1.04992 18.9087 0.776704 19.1878 0.5055C19.3354 0.333282 19.512 0.189374 19.7093 0.0805726C19.8471 0.0182024 19.9979 -0.00830444 20.1483 0.00344159C20.2986 0.0151876 20.4437 0.0648191 20.5706 0.14787C20.6975 0.230921 20.8021 0.34479 20.8752 0.47927C20.9482 0.613749 20.9874 0.764623 20.9891 0.918345C20.9891 2.52946 20.9891 4.15869 20.9891 5.77786C20.9891 7.14328 20.9891 8.5107 20.9891 9.87612C20.9984 11.4214 21.0017 12.9627 20.999 14.5ZM2.82798 3.11147V25.8966C2.92081 25.806 2.99784 25.7355 3.07092 25.659C3.15558 25.5686 3.25735 25.4966 3.37006 25.4475C3.48276 25.3983 3.60409 25.373 3.72667 25.373C3.84545 25.372 3.96323 25.3952 4.07311 25.4412C4.183 25.4871 4.28278 25.555 4.36661 25.6408C4.72805 26.0013 5.09738 26.3578 5.4608 26.7203C5.52203 26.7807 5.56155 26.7807 5.62475 26.7203C5.96842 26.3799 6.31999 26.0436 6.66366 25.7013C6.82498 25.5223 7.04063 25.4038 7.27594 25.3649C7.40702 25.3515 7.53938 25.3681 7.6634 25.4134C7.78741 25.4587 7.89998 25.5316 7.99291 25.6267C8.36818 25.9832 8.73159 26.3497 9.09502 26.7163C9.16217 26.7827 9.19969 26.7807 9.26487 26.7163C9.61052 26.3739 9.96011 26.0376 10.3038 25.6952C10.4766 25.5043 10.7151 25.3888 10.9694 25.373C11.094 25.37 11.2179 25.3927 11.3336 25.4398C11.4493 25.4869 11.5546 25.5573 11.6429 25.6469C12.0044 26.0054 12.3698 26.3578 12.7312 26.7163C12.7964 26.7827 12.8359 26.7827 12.9011 26.7163C13.2507 26.3679 13.6081 26.0295 13.9558 25.6791C14.1255 25.4957 14.3585 25.3867 14.6056 25.375C14.7298 25.3708 14.8536 25.3928 14.9691 25.4396C15.0847 25.4864 15.1895 25.5569 15.2771 25.6469C15.6386 26.0054 16.0059 26.3578 16.3654 26.7163C16.4326 26.7807 16.4701 26.7827 16.5353 26.7163C16.8849 26.3699 17.2443 26.0295 17.592 25.6811C17.6785 25.5872 17.7824 25.5117 17.8976 25.4588C18.0128 25.4059 18.1372 25.3768 18.2635 25.373C18.3823 25.3707 18.5003 25.3931 18.6103 25.4388C18.7203 25.4845 18.8201 25.5525 18.9034 25.6388L19.1878 25.9167V3.08731L18.9074 3.35918C18.8239 3.4465 18.724 3.5159 18.6138 3.56328C18.5035 3.61067 18.3851 3.63508 18.2655 3.63508C18.1458 3.63508 18.0274 3.61067 17.9172 3.56328C17.8069 3.5159 17.7071 3.4465 17.6236 3.35918C17.2621 3.00675 16.9007 2.65633 16.5412 2.29987C16.4741 2.2314 16.4365 2.22334 16.3654 2.29987C16.0139 2.6523 15.6564 2.99466 15.3028 3.34508C15.2201 3.43758 15.1197 3.5119 15.0078 3.56349C14.8959 3.61508 14.7749 3.64286 14.6522 3.64512C14.5294 3.64738 14.4075 3.62409 14.2939 3.57666C14.1802 3.52922 14.0773 3.45864 13.9913 3.36924C13.6319 3.0148 13.2684 2.66439 12.9109 2.30793C12.8398 2.23543 12.7984 2.22939 12.7253 2.30793C12.3777 2.65634 12.0202 2.99668 11.6725 3.34709C11.587 3.44058 11.4835 3.51512 11.3685 3.56609C11.2535 3.61705 11.1294 3.64336 11.004 3.64336C10.8786 3.64336 10.7545 3.61705 10.6395 3.56609C10.5245 3.51512 10.421 3.44058 10.3354 3.34709C9.98185 2.99668 9.62237 2.6523 9.2708 2.30189C9.20365 2.23341 9.16414 2.22737 9.09304 2.30189C8.74344 2.65432 8.38397 2.99668 8.0324 3.34911C7.94684 3.4426 7.84334 3.51713 7.72832 3.5681C7.61331 3.61907 7.48923 3.64537 7.36383 3.64537C7.23842 3.64537 7.11437 3.61907 6.99935 3.5681C6.88433 3.51713 6.78081 3.4426 6.69525 3.34911C6.34368 2.99668 5.98225 2.65432 5.63068 2.3039C5.5655 2.23744 5.52993 2.23543 5.46278 2.3039C5.09936 2.6664 4.732 3.02285 4.36463 3.38133C4.2184 3.53366 4.0236 3.62773 3.81537 3.64656C3.60714 3.66539 3.39918 3.60775 3.22894 3.48404C3.09463 3.36522 2.9781 3.24035 2.83194 3.11549L2.82798 3.11147Z" fill="#FFAA40"/>
<path id="Vector_2" d="M10.3605 15.507C10.3605 15.3318 10.3507 15.1566 10.3605 14.9834C10.3605 14.8545 10.3111 14.8122 10.2025 14.782C10.0019 14.7428 9.80392 14.6904 9.60997 14.6249C9.28657 14.5127 8.99207 14.3277 8.7483 14.0837C8.50452 13.8396 8.31772 13.5428 8.20172 13.2152C8.09506 12.9252 8.04569 12.611 7.96669 12.317C7.94299 12.2284 7.99631 12.2122 8.05754 12.2042C8.19975 12.1861 8.34196 12.1679 8.48417 12.1538C8.77254 12.1256 9.06288 12.1015 9.35125 12.0713C9.42038 12.0713 9.45197 12.0713 9.47173 12.1538C9.52475 12.4212 9.62371 12.6768 9.76404 12.909C9.88035 13.0832 10.0351 13.2272 10.2159 13.3293C10.3967 13.4314 10.5984 13.4889 10.8049 13.4971C11.1838 13.5426 11.5678 13.4893 11.9209 13.342C12.1211 13.2663 12.287 13.1182 12.3872 12.9258C12.4873 12.7335 12.5147 12.5104 12.464 12.2988C12.4328 12.1989 12.3816 12.1067 12.3136 12.028C12.2456 11.9493 12.1623 11.8858 12.069 11.8417C11.8054 11.6999 11.5235 11.5968 11.2316 11.5356C10.801 11.4248 10.3665 11.3221 9.94378 11.1852C9.5185 11.0571 9.12876 10.8287 8.80611 10.5186C8.49392 10.2116 8.29984 9.80082 8.259 9.36058C8.2128 9.0217 8.25388 8.6764 8.3782 8.35861C8.50252 8.04082 8.7058 7.76149 8.96806 7.54808C9.26265 7.30075 9.61402 7.13376 9.9892 7.06274C10.0801 7.0426 10.1689 7.01843 10.2618 7.00434C10.3546 6.99024 10.3625 6.956 10.3625 6.87746C10.3625 6.50288 10.3625 6.12627 10.3625 5.74968C10.3625 5.60468 10.3625 5.59863 10.5146 5.59662H11.4705C11.6483 5.59662 11.6562 5.59663 11.6562 5.78191C11.6562 6.13836 11.6562 6.49482 11.6562 6.85128C11.6562 6.96809 11.6996 7.00232 11.8083 7.02246C12.543 7.15739 13.1652 7.48162 13.5484 8.17037C13.7054 8.44891 13.7948 8.76171 13.8091 9.08266C13.8091 9.32433 13.8091 9.32232 13.578 9.32836C13.1968 9.32836 12.8176 9.34245 12.4364 9.36058C12.3179 9.36058 12.2784 9.32433 12.2547 9.20752C12.2127 8.9397 12.079 8.69571 11.8774 8.51877C11.7155 8.38774 11.5187 8.30918 11.3125 8.29322C11.0742 8.26703 10.8339 8.26703 10.5956 8.29322C10.326 8.30686 10.0699 8.41746 9.87268 8.60537C9.82032 8.66108 9.77994 8.72734 9.75415 8.79989C9.72837 8.87244 9.71775 8.94969 9.72295 9.02667C9.72816 9.10365 9.74908 9.17867 9.78439 9.24693C9.81969 9.31518 9.8686 9.37515 9.92796 9.42301C10.1406 9.58873 10.3848 9.7074 10.6449 9.77142C11.1091 9.89829 11.5772 10.003 12.0275 10.14C12.5884 10.3071 13.1296 10.5266 13.5345 10.9858C13.8089 11.291 13.9757 11.6808 14.0086 12.0934C14.0305 12.2536 14.0417 12.4151 14.0421 12.5768C14.0348 12.9779 13.9173 13.3689 13.7029 13.7053C13.4885 14.0417 13.1859 14.3101 12.8294 14.4799C12.5564 14.6215 12.2641 14.7206 11.9623 14.7739C11.8794 14.79 11.7964 14.8041 11.7155 14.8283C11.7015 14.8344 11.6893 14.8438 11.6796 14.8557C11.67 14.8676 11.6633 14.8817 11.6601 14.8968C11.6601 15.1565 11.6601 15.4163 11.6601 15.6781C11.6601 15.8111 11.6601 15.946 11.6601 16.0809C11.6601 16.1595 11.6404 16.1997 11.5555 16.1997H10.4613C10.3823 16.1997 10.3605 16.1635 10.3625 16.089C10.3625 15.9098 10.3605 15.7084 10.3605 15.507Z" fill="#FFAA40"/>
<path id="Vector_3" d="M10.9996 20.8639H17.0948C17.2923 20.8639 17.2923 20.8639 17.2923 21.0653C17.2923 21.5446 17.2923 22.0219 17.2923 22.5012C17.2923 22.6522 17.2785 22.6663 17.1343 22.6663H4.87672C4.72859 22.6663 4.72266 22.6663 4.72266 22.5153V21.0169C4.72266 20.8679 4.73253 20.8599 4.87277 20.8599L10.9996 20.8639Z" fill="#FFAA40"/>
<path id="Vector_4" d="M10.4683 17.3013H17.1383C17.2805 17.3013 17.2904 17.3114 17.2904 17.4584C17.2904 17.9559 17.2904 18.4553 17.2904 18.9547C17.2904 19.0655 17.2588 19.1098 17.1442 19.1098C16.2277 19.1098 15.3113 19.1098 14.3949 19.1098H8.48135H4.88072C4.72469 19.1098 4.71875 19.1098 4.71875 18.9406V17.4685C4.71875 17.3074 4.71877 17.3033 4.88468 17.3033L10.4683 17.3013Z" fill="#FFAA40"/>
</g>
</svg>
