<svg width="20" height="20" viewBox="0 0 20 20" fill="none" xmlns="http://www.w3.org/2000/svg">
<path id="Vector" d="M13.5337 14.6242C13.0124 14.9707 12.5253 15.3399 12.0115 15.6369C10.6382 16.4167 9.05947 16.7581 7.48681 16.6154C5.82741 16.4875 4.2519 15.834 2.98877 14.7498C1.61078 13.6122 0.648533 12.0498 0.252607 10.3068C-0.0333696 9.18039 -0.077092 8.00606 0.124302 6.86146C0.325697 5.71687 0.767646 4.62807 1.42091 3.66705C2.06694 2.64577 2.94033 1.78786 3.97284 1.16041C5.00535 0.532964 6.16899 0.152983 7.37268 0.0502028C8.49718 -0.0788136 9.63624 0.04158 10.709 0.402829C11.7817 0.764079 12.7617 1.35731 13.5794 2.14036C15.0511 3.4999 15.9907 5.33934 16.2299 7.32905C16.4691 9.31875 15.9922 11.3286 14.8847 12.9985L14.6715 13.3183C15.1739 13.8285 15.6572 14.3158 16.1405 14.8108C17.3278 16.0214 18.5138 17.2347 19.6986 18.4504C19.8433 18.5811 19.9425 18.7548 19.9815 18.9459C20.0205 19.137 19.9974 19.3356 19.9155 19.5126C19.8566 19.6378 19.768 19.7466 19.6575 19.8297C19.547 19.9128 19.4178 19.9677 19.2813 19.9894C19.1447 20.0112 19.0049 19.9992 18.8741 19.9546C18.7432 19.91 18.6252 19.8341 18.5303 19.7335C17.9481 19.1548 17.3887 18.5647 16.8102 17.9783L13.8762 14.9783C13.7392 14.8526 13.625 14.727 13.5337 14.6242ZM7.69994 15.3285C10.2154 15.3285 12.1942 14.392 13.4082 12.7701C15.1739 10.4401 15.5202 7.88544 14.2453 5.24324C13.0086 2.68099 10.8813 1.34085 8.01959 1.33704C6.79071 1.37636 5.59391 1.73905 4.54979 2.38858C3.50567 3.0381 2.65112 3.9515 2.07228 5.03673C1.49345 6.12195 1.21078 7.34066 1.25275 8.57001C1.29473 9.79936 1.65988 10.9959 2.31138 12.0391C3.67374 14.1749 5.63737 15.2333 7.69613 15.3285H7.69994Z" fill="#0FC3C1"/>
</svg>
