<svg width="22" height="31" viewBox="0 0 22 31" fill="none" xmlns="http://www.w3.org/2000/svg">
<g id="Layer_1" clip-path="url(#clip0_242_384)">
<path id="Vector" d="M19.418 1.10856C19.4665 0.844083 19.5097 0.576794 19.5609 0.264487C19.2184 0.202588 18.9082 0.140693 18.5954 0.0928624C18.3688 0.0562859 18.056 -0.0675149 17.9346 0.0365875C17.8132 0.14069 17.8105 0.478312 17.7701 0.714652C17.673 1.27737 17.5813 1.8626 17.4707 2.52098C18.1369 2.07081 18.7383 1.67689 19.3344 1.25767C19.3781 1.21972 19.4077 1.16695 19.418 1.10856Z" fill="#015958"/>
<path id="Vector_2" d="M18.6827 5.48648C18.7447 5.14041 18.7987 4.79434 18.8661 4.36105C18.3865 4.72465 17.8867 5.05817 17.3692 5.35987C16.7327 5.68343 16.8972 6.28272 16.7812 6.80324C17.407 6.42903 18.0003 6.02951 18.5883 5.62716C18.6355 5.59428 18.6692 5.54407 18.6827 5.48648Z" fill="#015958"/>
<path id="Vector_3" d="M19.2001 2.39154C19.1931 2.36182 19.1841 2.33267 19.1731 2.30432L17.4793 3.44382C17.4365 3.46799 17.3958 3.49624 17.358 3.52822C17.3237 3.56213 17.2986 3.60482 17.2852 3.65202C17.2285 3.95307 17.18 4.25694 17.1152 4.63959C17.5179 4.33123 17.9385 4.04933 18.3748 3.79551C18.6363 3.68164 18.8568 3.48471 19.0049 3.23268C19.1531 2.98065 19.2214 2.68635 19.2001 2.39154Z" fill="#015958"/>
<path id="Vector_4" d="M21.9833 29.8464C21.9698 29.7592 21.9482 29.6776 21.9293 29.596C21.9293 29.5679 21.9131 29.5369 21.9077 29.5088C21.3965 27.4172 21.0216 25.2918 20.7858 23.1473C20.6482 21.8277 20.5673 20.5138 20.4837 19.0535C20.4062 17.4557 20.4775 15.8539 20.6968 14.2704C20.8677 12.8463 21.2149 11.4514 21.7297 10.1204L21.8457 9.825H21.816L21.8889 9.64774C21.9478 9.52356 21.9719 9.38459 21.9586 9.24674C21.9452 9.1089 21.8949 8.97777 21.8133 8.86839C21.1265 7.89865 20.4351 6.92983 19.7393 5.96196C19.6577 5.86842 19.5673 5.78359 19.4696 5.70873C19.619 6.31813 19.5716 6.96194 19.3347 7.54038C19.3275 7.58978 19.33 7.64021 19.3421 7.68858C19.3541 7.73695 19.3755 7.78225 19.4049 7.82173C19.5667 8.07777 19.7447 8.31974 19.9443 8.6011H17.0935C17.4657 8.34788 17.7839 8.13686 18.0941 7.91459C18.1842 7.86114 18.256 7.77943 18.2991 7.68106C18.3746 7.36031 18.4204 7.03112 18.4879 6.64284C18.3611 6.716 18.2856 6.75257 18.2181 6.8004C17.792 7.08176 17.3794 7.38844 16.9397 7.64448C16.8042 7.70979 16.6886 7.81297 16.6058 7.94258C16.5229 8.07219 16.4761 8.22318 16.4705 8.37883C16.4705 8.45761 16.3868 8.59828 16.3383 8.59828C15.7422 8.59828 15.1435 8.59828 14.4908 8.59828L15.6775 6.62878L10.5315 3.23561C10.1728 3.82364 9.82218 4.38354 9.49313 4.9547C9.45655 5.05724 9.45655 5.17009 9.49313 5.27263C9.64147 5.79596 9.80059 6.31929 9.95702 6.84262C10.1269 7.40533 10.2942 7.99899 10.4641 8.5814C9.98939 8.66862 9.98399 8.67144 9.85723 8.2494C9.31782 6.44871 8.7856 4.64708 8.26057 2.84451C8.09335 2.2818 7.92343 1.71909 7.74812 1.11136L1.91975 2.98519C2.18946 3.87991 2.4349 4.74086 2.69651 5.6384C2.58154 5.64562 2.46627 5.64562 2.35129 5.6384C1.87391 5.57368 1.59342 5.80722 1.39114 6.24614C0.991972 7.09021 0.582016 7.95117 0.142394 8.77836C0.0634762 8.9235 0.0164858 9.08513 0.00482416 9.25155C-0.00683749 9.41797 0.0171215 9.58502 0.0749671 9.7406L0.169358 10.022H0.18554L0.209821 10.0923C1.09184 12.7781 1.56861 15.5905 1.62308 18.4289C1.71194 21.4376 1.44013 24.4461 0.813962 27.3845C0.689896 27.9782 0.54425 28.5747 0.38782 29.1515C0.333879 29.3597 0.279946 29.5679 0.228702 29.7733C0.169243 29.9476 0.160287 30.1364 0.202973 30.316C0.245658 30.4956 0.338085 30.6581 0.468729 30.7833C0.622387 30.9289 0.822185 31.01 1.02972 31.0112C1.16809 31.0095 1.30472 30.9789 1.43158 30.9212C1.51215 30.8876 1.59838 30.8714 1.68511 30.8734H20.5646C20.656 30.8737 20.7468 30.888 20.8343 30.9156C20.984 30.9723 21.1451 30.9881 21.3023 30.9615C21.4595 30.9349 21.6076 30.8668 21.7324 30.7637C21.8473 30.6469 21.9309 30.5008 21.9749 30.3399C22.0189 30.179 22.0218 30.0089 21.9833 29.8464ZM2.49423 7.15773C2.55626 7.05363 2.82327 7.06207 2.99588 7.06488C3.06061 7.06488 3.15501 7.19149 3.18198 7.27872C3.31683 7.70638 3.4355 8.13967 3.56766 8.6011H1.77142C2.00606 8.10873 2.21913 7.61353 2.49423 7.15773ZM2.22452 29.0333C3.79692 22.1682 3.75377 16.0205 2.09777 10.2583H19.8202C19.804 10.3118 19.7878 10.3624 19.7744 10.4159C19.6827 10.7141 19.591 11.0236 19.5047 11.3331C18.9383 13.508 18.6955 15.8686 18.7441 18.7553C18.8271 22.1712 19.2419 25.5696 19.982 28.8983C19.982 28.9433 20.0009 28.9883 20.009 29.0333H2.22452Z" fill="#015958"/>
<path id="Vector_5" d="M15.2028 12.7511C15.1293 12.6032 15.0279 12.4723 14.9046 12.3663C14.7813 12.2604 14.6387 12.1817 14.4854 12.1349C14.3256 12.0842 14.1575 12.0679 13.9915 12.0873C13.8254 12.1066 13.6649 12.1612 13.5198 12.2475C13.3732 12.338 13.2459 12.4588 13.1457 12.6025C13.0455 12.7462 12.9746 12.9098 12.9373 13.0831C12.8999 13.2456 12.895 13.4144 12.9228 13.579C12.9507 13.7436 13.0107 13.9004 13.0991 14.0397C13.1962 14.1923 13.3221 14.3227 13.4691 14.4228C13.6161 14.5229 13.7811 14.5908 13.954 14.6221L14.0242 14.6362C14.0242 14.7403 14.0242 14.8416 14.0242 14.9401C14.0202 15.0473 14.0058 15.1538 13.981 15.258C13.5899 16.6648 12.6649 17.5398 11.1464 17.9056C10.6919 18.0431 10.207 18.0244 9.76354 17.8521C9.32006 17.6798 8.94153 17.3631 8.68397 16.949C8.21709 16.2327 7.93813 15.4014 7.87485 14.5377C8.43854 14.2282 8.71364 13.7499 8.63543 13.2097C8.60159 12.9501 8.49335 12.7073 8.3249 12.513C8.15645 12.3187 7.93566 12.182 7.69145 12.1209C7.4464 12.0651 7.19081 12.0891 6.95928 12.1897C6.72774 12.2904 6.53142 12.4628 6.39686 12.6836C6.26142 12.904 6.1956 13.1631 6.20866 13.4245C6.22172 13.6859 6.31301 13.9365 6.46967 14.141C6.52921 14.2245 6.57063 14.3205 6.59105 14.4224C6.66676 15.4357 6.95495 16.4192 7.43523 17.3035C8.1985 18.6231 9.23418 19.2899 10.5261 19.2899C10.6946 19.2891 10.863 19.2788 11.0304 19.2589C11.7404 19.1754 12.4241 18.9306 13.0336 18.5417C13.6431 18.1528 14.1635 17.6293 14.5582 17.0081C14.8586 16.5824 15.0711 16.0962 15.182 15.5804C15.293 15.0646 15.3 14.5304 15.2028 14.0116C15.2048 13.9436 15.2194 13.8767 15.246 13.8146C15.3088 13.6437 15.3374 13.4611 15.33 13.2782C15.3226 13.0953 15.2793 12.9159 15.2028 12.7511Z" fill="#015958"/>
</g>
<defs>
<clipPath id="clip0_242_384">
<rect width="22" height="31" fill="white"/>
</clipPath>
</defs>
</svg>
