<svg width="5" height="21" viewBox="0 0 5 21" fill="none" xmlns="http://www.w3.org/2000/svg">
<path d="M0.00195342 2.50006C0.00195342 3.88077 1.12124 5.00006 2.50195 5.00006C3.88267 5.00006 5.00195 3.88077 5.00195 2.50006C5.00195 1.11935 3.88267 6.10352e-05 2.50195 6.10352e-05C1.12124 6.10352e-05 0.00195342 1.11935 0.00195342 2.50006Z" fill="white"/>
<path d="M0.00195342 10.5001C0.00195342 11.8808 1.12124 13.0001 2.50195 13.0001C3.88267 13.0001 5.00195 11.8808 5.00195 10.5001C5.00195 9.11935 3.88267 8.00006 2.50195 8.00006C1.12124 8.00006 0.00195342 9.11935 0.00195342 10.5001Z" fill="white"/>
<path d="M0.00195342 18.5001C0.00195342 19.8808 1.12124 21.0001 2.50195 21.0001C3.88267 21.0001 5.00195 19.8808 5.00195 18.5001C5.00195 17.1193 3.88267 16.0001 2.50195 16.0001C1.12124 16.0001 0.00195342 17.1193 0.00195342 18.5001Z" fill="white"/>
</svg>
